# xmcd
#
# Track frame offsets:
#	150
#	18134
#	32326
#	49873
#	66746
#	83617
#	100209
#	116675
#	134248
#	148833
#	168644
#	184609
#	202327
#	221097
#	235839
#	250470
#	267076
#	283253
#	298389
#	317881
#
# Disc length: 4434 seconds
#
# Revision: 1
# Processed by: cddbd v1.5.2PL0 Copyright (c) Steve Scherf et al.
# Submitted via: audiograbber 1.83.01
#
DISCID=49115014
DTITLE=Verschiedene Interpreten - Top 20 aus den deutschen Charts 3/2010
DYEAR=2010
DGENRE=Deutscher Schlager
TTITLE0=Helene Fischer - Hundert Prozent
TTITLE1=Jürgen Drews - Ich bau dir ein Schloss (Radio Mix)
TTITLE2=Claudia Jung - Verdammt ich lieb dich noch immer
TTITLE3=Bernhard Brink - Vorbei ist nicht vorbei
TTITLE4=Gaby Baginsky - Heut´ Nacht will ich kein Engel sein
TTITLE5=NIC - Ich dreh den Mond in deine Richtung
TTITLE6=Rosanna Rocci - Aloha Coco
TTITLE7=Neue Zeiten - Liebe heißt
TTITLE8=Daniela Alfinito - Wenn der Wahnsinn zu Ende ist
TTITLE9=Kristina Bach - Ein Sonntag im Pyjama
TTITLE10=Uwe Busse - Die Liebe hat ein eigenes Gesicht
TTITLE11=Birgit Langer - Tränen die du lachst
TTITLE12=Simone - Die Nacht als sie fortlief
TTITLE13=Andreas Lebbing - An einer Dosis Liebe stirbt man nicht
TTITLE14=Susan Ebrahimi - Ich trag mein Herz zum Himmel
TTITLE15=Raffaele - Bella Donna (Radio Version)
TTITLE16=Nicki - Der Fischer und der König
TTITLE17=Oliver Thomas - Die Nacht ist viel zu schön zum Schlafengehn
TTITLE18=Larissa Strogoff - Halt mich
TTITLE19=Münchener Freiheit - Aus der Nummer raus
EXTD=RD
EXTT0=
EXTT1=
EXTT2=
EXTT3=
EXTT4=
EXTT5=
EXTT6=
EXTT7=
EXTT8=
EXTT9=
EXTT10=
EXTT11=
EXTT12=
EXTT13=
EXTT14=
EXTT15=
EXTT16=
EXTT17=
EXTT18=
EXTT19=
PLAYORDER=
